<?xml version="1.0" standalone="no"?><!DOCTYPE svg PUBLIC "-//W3C//DTD SVG 1.1//EN" "http://www.w3.org/Graphics/SVG/1.1/DTD/svg11.dtd"><svg t="1531646292127" class="icon" style="" viewBox="0 0 1024 1024" version="1.1" xmlns="http://www.w3.org/2000/svg" p-id="3188" xmlns:xlink="http://www.w3.org/1999/xlink" width="200" height="200"><defs><style type="text/css"></style></defs><path d="M998.817433 472.690256l-171.015748 173.005626c-7.33412 7.33412-12.223533 19.500798-9.778826 29.222771l41.503157 248.564112c7.390973 34.112184-7.277266 65.779661-34.169038 85.28046a88.236849 88.236849 0 0 1-48.89413 14.611385c-12.166679 0-26.834918-2.444707-39.05845-9.721972L524.885493 896.590994a22.229773 22.229773 0 0 0-24.447065 0L287.976377 1013.709491a87.384044 87.384044 0 0 1-87.952581-4.889413c-29.279624-19.500798-41.503157-51.168276-36.613744-85.280459l41.503157-246.119406c2.444707-12.166679 0-21.888651-7.334119-29.222771L24.175489 472.690256A93.183115 93.183115 0 0 1 4.504129 382.634091c9.778826-29.279624 34.169037-51.168276 65.950222-56.057688L307.477175 289.962659c9.778826 0 17.056092-7.33412 21.945505-17.056092L434.488206 48.732666A82.039802 82.039802 0 0 1 510.274108 0.009097c31.781185 0 61.060809 19.500798 75.729047 48.723569l107.453379 224.173901a31.042087 31.042087 0 0 0 22.002359 17.056092l236.96597 36.55689c29.336478 2.444707 56.22825 24.333358 65.950222 56.057689 12.223533 31.667477 2.444707 65.779661-19.500798 90.113018z" fill="#FFC83C" p-id="3189"></path></svg>